HIERARCHY
ROOT Hips
{
  OFFSET 0 0 0
  CHANNELS 6 Xposition Yposition Zposition Zrotation Yrotation Xrotation
  JOINT LeftThigh
  {
    OFFSET 8.409438 0 -5.917753
    CHANNELS 3 Zrotation Yrotation Xrotation
    JOINT LeftLeg
    {
      OFFSET 0 0 -42.358652
      CHANNELS 3 Zrotation Yrotation Xrotation
      JOINT LeftFoot
      {
        OFFSET 0 0 -39.357303
        CHANNELS 3 Zrotation Yrotation Xrotation
      }
    }
  }
  JOINT RightThigh
  {
    OFFSET -8.409438 0 -5.917753
    CHANNELS 3 Zrotation Yrotation Xrotation
    JOINT RightLeg
    {
      OFFSET 0 0 -42.358652
      CHANNELS 3 Zrotation Yrotation Xrotation
      JOINT RightFoot
      {
        OFFSET 0 0 -39.357303
        CHANNELS 3 Zrotation Yrotation Xrotation
      }
    }
  }
  JOINT SpineLow
  {
    OFFSET 0 0 4.719101
    CHANNELS 3 Zrotation Yrotation Xrotation
    JOINT SpineMid
    {
      OFFSET 0 0 12.899191
      CHANNELS 3 Zrotation Yrotation Xrotation
      JOINT Chest
      {
        OFFSET 0 0 12.899191
        CHANNELS 3 Zrotation Yrotation Xrotation
        JOINT LeftShoulder
        {
          OFFSET 7.550562 1.41573 9.438202
          CHANNELS 3 Zrotation Yrotation Xrotation
          JOINT LeftArm
          {
            OFFSET 9.155056 0 4.247191
            CHANNELS 3 Zrotation Yrotation Xrotation
            JOINT LeftForearm
            {
              OFFSET 0 0 25.771955
              CHANNELS 3 Zrotation Yrotation Xrotation
              JOINT LeftHand
              {
                OFFSET 0 0 25.197169
                CHANNELS 3 Zrotation Yrotation Xrotation
              }
            }
          }
        }
        JOINT RightShoulder
        {
          OFFSET -7.550562 1.41573 9.438202
          CHANNELS 3 Zrotation Yrotation Xrotation
          JOINT RightArm
          {
            OFFSET -9.155056 0 4.247191
            CHANNELS 3 Zrotation Yrotation Xrotation
            JOINT RightForearm
            {
              OFFSET 0 0 -25.771955
              CHANNELS 3 Zrotation Yrotation Xrotation
              JOINT RightHand
              {
                OFFSET 0 0 -25.197169
                CHANNELS 3 Zrotation Yrotation Xrotation
              }
            }
          }
        }
        JOINT Neck
        {
          OFFSET 0 0 15.101124
          CHANNELS 3 Zrotation Yrotation Xrotation
          JOINT Head
          {
            OFFSET 0 0 11.325843
            CHANNELS 3 Zrotation Yrotation Xrotation
            End Site
            {
              OFFSET 0 0 14.157303
            }
          }
        }
      }
    }
  }
}
MOTION
Frames: 14
Frame Time: 0.0
0.0  101.685394  0.0  12.426998  54.174983  -84.633588  -8.023196  -10.562167  -7.045937  -22.423626  14.801481  18.420993  3.227561  3.174011  3.131568  -39.673389  23.075271  -7.717895  -13.085306  10.158523  23.255081  -1.820382  4.670517  -3.883303  2.115811  1.834896  2.50143  5.975862  4.785878  7.003436  5.975862  4.785878  7.003436  2.886543  19.983895  12.189613  145.057082  25.404563  177.018299  -10.6135  1.689351  122.861461  90.014859  -1.157809  -24.366414  23.389721  1.181796  5.838914  142.190133  42.597337  101.226098  -60.75455  49.372268  -82.379896  87.84356  30.552109  13.316859  -25.215761  -1.904296  -2.694138  -18.918889  -1.319663  -2.103346  
0.0  101.685394  0.0  11.810554  53.342861  -85.343472  -7.743109  -10.849352  -6.865173  -22.125596  14.949072  18.822852  3.363975  3.3229  3.154019  -39.743865  23.086046  -7.870368  -12.337884  9.963234  23.519731  -1.796603  4.664719  -3.902139  2.028616  1.814313  2.487681  5.734155  4.740334  6.957732  5.734155  4.740335  6.957733  3.33734  20.115212  12.128298  144.858472  26.1205  177.467833  -10.318057  -0.368338  122.379103  90.376907  1.191938  -24.530185  24.622258  0.832797  5.982657  141.074471  43.35885  100.677429  -61.111118  49.089615  -82.798661  87.77681  30.495234  13.253598  -24.71198  -1.831489  -2.627685  -18.540667  -1.269768  -2.048726  
0.0  101.685394  0.0  11.019017  52.218434  -86.232751  -7.20147  -11.176464  -6.582822  -21.775627  14.98626  19.267118  3.467024  3.474075  3.127214  -39.48128  23.035501  -7.973578  -11.906831  9.7923  23.732955  -1.545421  4.737541  -3.890912  1.994145  1.759581  2.483137  5.633387  4.595134  6.937692  5.633387  4.595135  6.937692  3.440303  20.346518  12.078368  144.948604  26.82432  178.206527  -9.981058  -2.539806  121.885595  90.882897  3.563237  -24.715006  24.434885  0.902475  5.929666  140.914979  44.200869  99.584034  -61.665966  49.096568  -83.299716  87.701633  30.323528  13.275921  -24.200845  -1.759279  -2.66015  -18.157256  -1.216326  -2.068558  
0.0  101.685394  0.0  10.871329  51.69152  -86.441333  -7.167794  -11.122796  -6.451818  -21.50122  14.949704  19.692734  3.580853  3.588084  3.090554  -39.50253  23.141005  -8.202721  -10.891864  9.464888  24.076391  -2.109896  4.621027  -3.921041  1.727529  1.804658  2.473301  4.908865  4.747164  6.896603  4.908866  4.747164  6.896603  4.11743  20.297528  11.812141  145.184999  27.438522  179.154135  -9.720664  -4.805328  121.383618  91.506709  5.916098  -24.793463  24.92269  0.774472  5.633376  140.731649  45.064481  98.326329  -62.387955  49.286023  -83.854693  87.639575  30.051012  13.365677  -23.294973  -1.787809  -2.668905  -17.477999  -1.24122  -2.073316  
0.0  101.685394  0.0  10.003945  50.180575  -87.428176  -6.100615  -11.374591  -5.965388  -21.290078  14.774673  20.026502  3.580903  3.677392  3.053861  -38.688543  23.057359  -8.184049  -10.563705  9.268958  24.249105  -1.927488  4.669711  -3.910163  1.691818  1.747957  2.471311  4.804772  4.596395  6.883973  4.804772  4.596395  6.883973  4.156497  20.456236  11.695724  145.59052  27.989581  -179.644762  -9.462123  -7.055511  120.938983  92.356498  8.285324  -24.784033  24.661756  0.835672  5.541356  140.565833  45.962963  96.839765  -63.142274  49.515762  -84.34895  87.651133  29.696605  13.414909  -22.603279  -1.720505  -2.735928  -16.959277  -1.191081  -2.118934  
0.0  101.685394  0.0  9.237952  48.531898  -88.39527  -4.970235  -11.483219  -5.303307  -20.877938  14.437559  20.462784  3.447708  3.691889  2.897077  -37.330392  23.036815  -7.874959  -10.443348  9.074546  24.333327  -1.737623  4.706772  -3.912465  1.641979  1.718618  2.48116  4.665918  4.520887  6.905194  4.665918  4.520887  6.905195  4.203534  20.488419  11.550114  146.140697  28.515715  -178.200361  -9.180821  -9.227374  120.545293  93.334382  10.708738  -24.779416  24.415075  0.790998  5.436625  140.339614  46.973916  95.168767  -63.89585  49.677849  -84.712688  87.745164  29.514853  13.319255  -21.812176  -1.673115  -2.733348  -16.365829  -1.158998  -2.112835  
0.0  101.685394  0.0  8.434728  46.547375  -89.436117  -3.585793  -11.669417  -4.494898  -20.751304  14.075224  20.558052  3.52308  3.785886  2.868943  -35.932358  22.964509  -7.601815  -10.316715  8.923335  24.33989  -1.517003  4.694415  -3.920298  1.641925  1.670516  2.475243  4.660046  4.390087  6.885151  4.660046  4.390087  6.885151  4.06535  20.587464  11.586336  146.877656  29.061132  -176.518727  -8.932413  -11.273165  120.200629  94.327632  13.087732  -24.819568  23.950963  0.724729  5.554888  139.985185  48.122112  93.22956  -64.689024  49.847367  -85.046017  87.973543  29.373748  13.084751  -21.016723  -1.595533  -2.677472  -15.768862  -1.106096  -2.065794  
0.0  101.685394  0.0  7.767433  44.439748  -90.389239  -2.233353  -11.793903  -3.619456  -20.577487  13.668564  20.61955  3.703081  3.899099  2.854232  -33.186984  22.806032  -6.611631  -10.347552  8.762094  24.244782  -2.102011  4.524503  -3.984766  1.632937  1.644303  2.467318  4.632075  4.320086  6.860814  4.632075  4.320087  6.860814  3.850568  20.65817  11.616801  147.792217  29.662893  -174.657773  -8.652247  -13.107291  119.908765  95.421891  15.444428  -25.016189  23.461358  0.566693  5.744316  139.414645  49.406498  90.974034  -65.653217  50.1135  -85.420167  88.196855  29.257207  12.782474  -20.015003  -1.522082  -2.502421  -15.016892  -1.060933  -1.92905  
0.0  101.685394  0.0  7.12197  42.108377  -91.321886  -0.806285  -12.012482  -2.685131  -20.423892  13.299072  20.547775  3.951491  4.040331  2.848995  -31.485848  22.650901  -6.219149  -10.258655  8.69699  24.071529  -1.783934  4.493362  -4.013894  1.624977  1.613597  2.43612  4.604994  4.239373  6.772556  4.604994  4.239374  6.772557  3.66542  20.794809  11.791198  148.77234  30.354798  -172.656754  -8.505214  -14.791528  119.693543  96.742087  17.985417  -25.340019  22.951705  0.359178  6.148226  138.612393  50.739813  88.35269  -66.838989  50.518356  -85.902605  88.237963  29.172151  12.555552  -19.011449  -1.448282  -2.308231  -14.263532  -1.015555  -1.77821  
0.0  101.685394  0.0  6.542289  39.644202  -92.225668  0.551658  -12.309277  -1.710755  -20.07966  13.014252  20.475983  4.228492  4.139931  2.832335  -28.659639  22.359445  -5.230149  -10.927523  8.744601  23.709774  -1.51682  4.466656  -4.071788  1.596027  1.587967  2.412434  4.521629  4.174098  6.70399  4.521629  4.174098  6.703989  3.511735  21.005478  11.958368  149.738562  31.206727  -170.580029  -8.377029  -16.382539  119.573558  98.396747  20.89293  -25.912769  22.498102  0.135698  6.622211  137.50582  52.078136  85.34802  -68.180062  50.893986  -86.50548  88.12084  29.01147  12.452747  -17.797846  -1.387145  -2.086469  -13.352647  -0.98057  -1.606816  
0.0  101.685394  0.0  6.060934  37.123292  -92.979885  1.869653  -12.633918  -0.793242  -19.623335  12.737753  20.339727  4.47196  4.257148  2.86598  -27.147676  22.165476  -4.960171  -10.494025  8.621942  23.460917  -1.235887  4.422058  -4.095408  1.538328  1.56289  2.368658  4.35858  4.11454  6.578848  4.35858  4.11454  6.578848  3.356386  21.399141  12.193392  150.745512  32.252296  -168.442707  -8.325386  -18.065273  119.385702  100.253133  23.949041  -26.599677  21.987958  -0.073881  7.269407  136.093337  53.370556  81.891311  -69.516388  51.113302  -87.139221  87.917149  28.760665  12.521209  -16.578458  -1.347549  -1.895756  -12.437588  -0.960066  -1.459602  
0.0  101.685394  0.0  5.657013  34.428072  -93.761542  3.137676  -12.860522  0.215477  -18.847314  12.392958  20.341512  4.675834  4.327385  2.869586  -25.438483  22.01011  -4.528365  -10.006328  8.439629  23.158575  -1.070034  4.357147  -4.125391  1.511368  1.553823  2.344186  4.282457  4.094132  6.509618  4.282457  4.094132  6.509618  2.895766  21.858378  12.351538  151.750105  33.521748  -166.327877  -8.537673  -19.963723  119.172918  102.067186  26.727381  -27.219357  21.368469  -0.43174  7.923035  134.159804  54.518858  77.987395  -70.770515  51.046946  -87.79433  87.723826  28.409729  12.736916  -15.354896  -1.388189  -1.691239  -11.51955  -0.999394  -1.30424  
0.0  101.685394  0.0  5.324494  31.680285  -94.436241  4.517389  -13.211675  1.199665  -18.206562  12.130895  20.146092  4.905498  4.405843  2.926423  -24.404621  21.830714  -4.400134  -9.004602  8.278119  22.816894  -0.786419  4.265803  -4.10988  1.489143  1.555488  2.300086  4.219214  4.10377  6.387777  4.219214  4.10377  6.387777  2.242724  22.340466  12.533204  152.811539  35.031355  -164.263826  -8.946228  -21.759244  119.078974  103.959499  29.009799  -27.548027  20.66194  -0.901389  8.720608  131.697739  55.544235  73.626872  -71.888279  50.701487  -88.486493  87.55136  27.900247  13.104573  -14.214887  -1.478036  -1.486101  -10.66424  -1.07465  -1.149647  
0.0  101.685394  0.0  5.044923  28.750194  -95.111967  5.804544  -13.436097  2.159966  -17.233894  11.852216  20.160465  5.189338  4.370902  2.956675  -23.182687  21.624707  -4.110892  -8.06129  8.212081  22.410171  -0.486087  4.082281  -4.117254  1.545544  1.577308  2.274611  4.374066  4.159533  6.323121  4.374066  4.159533  6.32312  1.161106  22.587307  12.609986  153.934353  36.68498  -162.16235  -9.451136  -23.246324  119.174923  106.016423  30.923887  -27.555519  19.534029  -1.481705  9.513209  128.672396  56.446991  68.779862  -72.913226  50.195811  -89.241277  87.272495  27.222438  13.601344  -13.175689  -1.684025  -1.28072  -9.884633  -1.236091  -0.997345  
